<svg width="166" height="24" viewBox="0 0 166 24" fill="none" xmlns="http://www.w3.org/2000/svg">
<path d="M163.147 22.7882V2.29397C163.147 1.64961 163.42 1.1363 163.967 0.754043C164.524 0.37179 165.016 0.180664 165.443 0.180664C165.814 0.180664 166 0.415476 166 0.885101V21.2155C166 21.7616 165.891 22.1602 165.672 22.4114C165.388 22.739 165.038 23.0284 164.623 23.2796C164.218 23.5308 163.896 23.6564 163.655 23.6564C163.557 23.6564 163.475 23.6455 163.41 23.6237C163.355 23.6018 163.295 23.5254 163.229 23.3943C163.174 23.2523 163.147 23.0503 163.147 22.7882ZM160.983 20.2325L149.882 2.55609C149.751 2.34858 149.686 2.15746 149.686 1.98271C149.686 1.74244 149.811 1.48578 150.063 1.21275C150.719 0.524691 151.331 0.180664 151.899 0.180664C152.172 0.180664 152.418 0.355408 152.637 0.704896L161.524 14.7445C161.819 15.2032 161.999 15.6291 162.065 16.0223C162.131 16.4046 162.163 17.0271 162.163 17.8899C162.163 19.8121 161.961 20.7732 161.557 20.7732C161.415 20.7732 161.245 20.6203 161.048 20.3145C161.016 20.2817 160.994 20.2544 160.983 20.2325ZM152.309 8.42094C152.484 8.82503 152.571 9.32196 152.571 9.91172V21.2155C152.571 21.7616 152.462 22.1602 152.243 22.4114C151.97 22.739 151.62 23.0284 151.194 23.2796C150.779 23.5308 150.462 23.6564 150.243 23.6564C149.893 23.6564 149.718 23.4216 149.718 22.952V5.66872C149.718 5.4066 149.822 5.27554 150.03 5.27554C150.172 5.27554 150.325 5.37384 150.489 5.57043C150.664 5.76701 150.943 6.14927 151.325 6.71718C151.762 7.37247 152.09 7.94039 152.309 8.42094Z" fill="#0062C3"/>
<path d="M145.798 11.2874C145.798 12.7618 145.722 14.0778 145.569 15.2355C145.416 16.3932 145.191 17.4253 144.896 18.3317C144.612 19.2273 144.257 20.0082 143.831 20.6744C143.415 21.3297 142.934 21.8921 142.388 22.3618C141.732 22.9406 141.169 23.23 140.699 23.23C140.469 23.23 140.354 23.0935 140.354 22.8205C140.354 22.7331 140.436 22.5857 140.6 22.3782C140.764 22.1597 140.923 21.9031 141.076 21.6082C141.95 19.959 142.388 17.458 142.388 14.1051C142.388 13.5044 142.388 12.8055 142.388 12.0082C142.388 11.2109 142.333 10.3918 142.224 9.55085C142.125 8.69898 141.95 7.86348 141.699 7.04437C141.448 6.22526 141.065 5.49352 140.551 4.84915C140.037 4.20478 139.365 3.68601 138.534 3.29283C137.715 2.88874 136.687 2.68669 135.452 2.68669C134.49 2.68669 133.55 2.86689 132.632 3.2273C131.713 3.58771 130.801 4.12287 129.893 4.83276L129.369 5.24232C129.27 5.32969 129.161 5.40614 129.041 5.47167C128.921 5.5372 128.833 5.56997 128.778 5.56997C128.549 5.56997 128.434 5.46075 128.434 5.24232C128.434 4.90375 128.669 4.43413 129.139 3.83345C130.123 2.57747 131.282 1.6273 132.615 0.982935C133.949 0.327645 135.354 0 136.829 0C138.316 0 139.617 0.223891 140.732 0.671672C141.857 1.11945 142.792 1.80751 143.535 2.73584C144.29 3.65324 144.853 4.82184 145.224 6.24164C145.607 7.66143 145.798 9.34334 145.798 11.2874ZM131.763 6.14334C131.763 6.24164 131.708 6.58567 131.599 7.17543C131.489 7.75427 131.38 8.52423 131.271 9.48532C131.161 10.4464 131.107 11.4348 131.107 12.4505C131.107 13.2369 131.129 13.9522 131.172 14.5966C131.227 15.241 131.314 15.9181 131.435 16.628C131.555 17.3379 131.741 17.9604 131.992 18.4956C132.244 19.0198 132.555 19.5058 132.927 19.9536C133.298 20.3904 133.774 20.729 134.353 20.9693C134.933 21.1986 135.594 21.3133 136.337 21.3133C136.993 21.3133 137.573 21.2478 138.075 21.1167C138.578 20.9747 138.966 20.8382 139.24 20.7072C139.513 20.5761 139.699 20.5106 139.797 20.5106C140.037 20.5106 140.158 20.6416 140.158 20.9038C140.158 21.1768 140.054 21.4826 139.846 21.8212C139.638 22.1597 139.349 22.4983 138.977 22.8369C138.606 23.1645 138.103 23.4375 137.469 23.656C136.835 23.8853 136.151 24 135.419 24C133.943 24 132.697 23.7597 131.681 23.2792C130.664 22.7877 129.866 22.0505 129.287 21.0676C128.718 20.0846 128.308 18.9488 128.057 17.6601C127.817 16.3713 127.696 14.8369 127.696 13.0567C127.696 10.359 127.97 8.49147 128.516 7.45392C128.822 6.88601 129.259 6.4273 129.828 6.07782C130.396 5.71741 130.872 5.5372 131.254 5.5372C131.593 5.5372 131.763 5.73925 131.763 6.14334Z" fill="#0062C3"/>
<path d="M123.826 0.885101V21.2155C123.826 21.7506 123.711 22.1493 123.482 22.4114C123.208 22.739 122.82 23.0284 122.318 23.2796C121.826 23.5308 121.421 23.6564 121.104 23.6564C120.722 23.6564 120.53 23.4216 120.53 22.952V2.62162C120.53 2.16292 120.645 1.79705 120.875 1.52401C121.159 1.18544 121.547 0.87964 122.039 0.606603C122.531 0.322644 122.935 0.180664 123.252 0.180664C123.635 0.180664 123.826 0.415476 123.826 0.885101Z" fill="#0062C3"/>
<path d="M113.3 22.7882V2.29397C113.3 1.64961 113.574 1.1363 114.12 0.754043C114.678 0.37179 115.17 0.180664 115.596 0.180664C115.968 0.180664 116.153 0.415476 116.153 0.885101V21.2155C116.153 21.7616 116.044 22.1602 115.826 22.4114C115.541 22.739 115.192 23.0284 114.776 23.2796C114.372 23.5308 114.049 23.6564 113.809 23.6564C113.71 23.6564 113.628 23.6455 113.563 23.6237C113.508 23.6018 113.448 23.5254 113.382 23.3943C113.328 23.2523 113.3 23.0503 113.3 22.7882ZM111.136 20.2325L100.036 2.55609C99.9045 2.34858 99.8389 2.15746 99.8389 1.98271C99.8389 1.74244 99.9646 1.48578 100.216 1.21275C100.872 0.524691 101.484 0.180664 102.052 0.180664C102.326 0.180664 102.572 0.355408 102.79 0.704896L111.677 14.7445C111.972 15.2032 112.153 15.6291 112.218 16.0223C112.284 16.4046 112.317 17.0271 112.317 17.8899C112.317 19.8121 112.114 20.7732 111.71 20.7732C111.568 20.7732 111.398 20.6203 111.202 20.3145C111.169 20.2817 111.147 20.2544 111.136 20.2325ZM102.462 8.42094C102.637 8.82503 102.725 9.32196 102.725 9.91172V21.2155C102.725 21.7616 102.615 22.1602 102.397 22.4114C102.123 22.739 101.774 23.0284 101.347 23.2796C100.932 23.5308 100.615 23.6564 100.396 23.6564C100.047 23.6564 99.8717 23.4216 99.8717 22.952V5.66872C99.8717 5.4066 99.9755 5.27554 100.183 5.27554C100.325 5.27554 100.478 5.37384 100.642 5.57043C100.817 5.76701 101.096 6.14927 101.479 6.71718C101.916 7.37247 102.244 7.94039 102.462 8.42094Z" fill="#0062C3"/>
<path d="M85.1471 18.4464L84.2289 21.215C83.9993 21.914 83.6003 22.4983 83.0319 22.9679C82.4635 23.4266 81.824 23.656 81.1135 23.656C80.9386 23.656 80.791 23.6068 80.6708 23.5085C80.5615 23.4212 80.5068 23.2901 80.5068 23.1154C80.5068 23.0498 80.5287 22.9515 80.5724 22.8205L82.1465 18.3154C82.223 18.086 82.305 17.9113 82.3924 17.7911C82.4799 17.6601 82.6001 17.5672 82.7532 17.5126C82.9171 17.458 83.0592 17.4253 83.1795 17.4143C83.3107 17.4034 83.5293 17.398 83.8353 17.398C84.0868 17.398 84.2726 17.4034 84.3928 17.4143C84.5131 17.4143 84.6497 17.4307 84.8027 17.4635C84.9667 17.4962 85.0815 17.5563 85.1471 17.6437C85.2127 17.7201 85.2455 17.8294 85.2455 17.9713C85.2455 18.0696 85.2127 18.228 85.1471 18.4464ZM90.5416 0.704437L97.5265 21.002C97.603 21.3515 97.6413 21.5481 97.6413 21.5918C97.6413 22.0614 97.368 22.5256 96.8215 22.9843C96.2749 23.4321 95.7939 23.656 95.3786 23.656C95.0178 23.656 94.7391 23.3775 94.5423 22.8205L87.7213 2.93242C87.612 2.44096 87.5574 2.17884 87.5574 2.14608C87.5574 1.66553 87.858 1.19044 88.4592 0.720819C89.0713 0.240273 89.5414 0 89.8693 0C90.0551 0 90.1863 0.0491468 90.2628 0.14744C90.3503 0.234812 90.4432 0.420478 90.5416 0.704437ZM90.2464 16.415H83.5894C83.174 16.415 82.9663 16.2348 82.9663 15.8744C82.9663 15.7761 82.9882 15.6669 83.0319 15.5468L86.3932 5.50444C86.5463 5.0785 86.7212 4.86553 86.9179 4.86553C87.0928 4.86553 87.2458 4.97474 87.377 5.19317C87.5082 5.40068 87.6503 5.73925 87.8033 6.20887C88.0875 7.09352 88.2296 7.75427 88.2296 8.19113C88.2296 8.49693 88.175 8.81911 88.0657 9.15768L86.7867 13.0567C86.7649 13.1113 86.7539 13.1877 86.7539 13.286C86.7539 13.5809 86.9234 13.7283 87.2622 13.7283H88.9675C89.525 13.7283 89.9021 13.7556 90.0989 13.8102C90.2956 13.8648 90.4541 14.0177 90.5744 14.2689C90.6837 14.4874 90.7711 14.7713 90.8367 15.1208C90.9132 15.4594 90.9515 15.7106 90.9515 15.8744C90.9515 16.2348 90.7165 16.415 90.2464 16.415Z" fill="#0062C3"/>
<path d="M68.5369 17.0045V21.2148C68.5369 21.7499 68.4222 22.1486 68.1926 22.4107C67.9193 22.7383 67.5313 23.0277 67.0284 23.2789C66.5365 23.5301 66.1321 23.6557 65.8151 23.6557C65.4325 23.6557 65.2412 23.4209 65.2412 22.9513V17.0045C65.2412 16.6113 65.3778 16.3438 65.6511 16.2018C65.9353 16.0598 66.3562 15.9888 66.9137 15.9888C67.5149 15.9888 67.9357 16.0598 68.1762 16.2018C68.4167 16.3329 68.5369 16.6004 68.5369 17.0045ZM65.2412 13.81V5.07824C65.2412 4.68507 65.3724 4.42841 65.6347 4.30828C65.908 4.17722 66.3234 4.11169 66.8809 4.11169C67.493 4.11169 67.9193 4.17722 68.1598 4.30828C68.4112 4.42841 68.5369 4.68507 68.5369 5.07824V11.9096C68.5369 12.3793 68.7446 12.6141 69.16 12.6141H71.8982C72.3683 12.6141 72.6033 12.7506 72.6033 13.0236C72.6033 13.2858 72.3628 13.5916 71.8818 13.941C71.4118 14.2796 70.8051 14.5636 70.0618 14.7929C69.6027 14.9349 68.4659 15.0059 66.6513 15.0059C66.0938 15.0059 65.7167 14.9076 65.52 14.711C65.3341 14.5144 65.2412 14.2141 65.2412 13.81ZM75.7842 8.63319C75.7842 4.99633 73.6253 3.1779 69.3076 3.1779H65.8807C65.7386 3.1779 65.6238 3.17244 65.5364 3.16152C65.4598 3.1506 65.3888 3.11783 65.3232 3.06322C65.2685 2.9977 65.2412 2.91032 65.2412 2.80111C65.2412 2.34241 65.5527 1.85094 66.1758 1.32671C66.8098 0.802474 67.4384 0.529436 68.0614 0.507593L69.7995 0.491211L71.8982 0.507593C72.4885 0.518515 73.0843 0.589504 73.6855 0.720562C74.2976 0.840699 74.948 1.07551 75.6367 1.425C76.3253 1.77449 76.932 2.21681 77.4567 2.75196C77.9814 3.28712 78.4132 4.00793 78.752 4.91442C79.1018 5.8209 79.2767 6.84753 79.2767 7.99428C79.2767 8.44206 79.2166 8.93353 79.0964 9.46869C78.987 10.0038 78.7739 10.5991 78.4569 11.2544C78.1508 11.9096 77.7628 12.5103 77.2927 13.0564C76.8336 13.5916 76.2105 14.0721 75.4235 14.498C74.6365 14.9131 73.7511 15.1806 72.7673 15.3008H72.6689C72.3737 15.3008 72.2262 15.1752 72.2262 14.924C72.2262 14.7711 72.3519 14.6182 72.6033 14.4653C74.7239 13.1547 75.7842 11.2107 75.7842 8.63319Z" fill="#0062C3"/>
<path d="M42.7465 12.025C42.8558 12.4837 42.9105 13.068 42.9105 13.7779V21.3138C42.9105 21.838 42.8012 22.2421 42.5825 22.5261C42.3202 22.8319 41.9868 23.0994 41.5823 23.3288C41.1779 23.5472 40.8937 23.6564 40.7297 23.6564C40.3471 23.6564 40.1558 23.4216 40.1558 22.952V7.438C40.1558 7.30694 40.1886 7.20319 40.2542 7.12674C40.3198 7.03937 40.4018 6.99568 40.5002 6.99568C40.6641 6.99568 40.8281 7.1595 40.9921 7.48715C41.167 7.81479 41.473 8.51377 41.9103 9.58408C42.3694 10.7308 42.6481 11.5445 42.7465 12.025ZM46.7801 19.479L40.2542 2.52333C40.1668 2.31582 40.123 2.11377 40.123 1.91718C40.123 1.65507 40.2269 1.40933 40.4346 1.17998C40.686 0.874179 41.0194 0.633906 41.4348 0.459162C41.8502 0.273497 42.1726 0.180664 42.4022 0.180664C42.6427 0.180664 42.8285 0.235272 42.9597 0.344487C43.1018 0.453702 43.2329 0.655749 43.3532 0.95063L48.8952 15.8421C49.092 16.3773 49.1904 16.8141 49.1904 17.1527C49.1904 17.4257 49.1248 17.7534 48.9936 18.1356C48.7313 18.8018 48.4744 19.3261 48.223 19.7083C47.9934 20.0687 47.7475 20.2489 47.4851 20.2489C47.354 20.2489 47.2337 20.1943 47.1244 20.0851C47.0151 19.9759 46.9003 19.7738 46.7801 19.479ZM55.5359 11.8121L52.109 20.7076C51.7482 21.6032 51.1798 22.3185 50.4037 22.8537C49.6495 23.3889 49.0647 23.6564 48.6493 23.6564C48.3214 23.6564 48.1574 23.5035 48.1574 23.1977C48.1574 23.0667 48.212 22.8755 48.3214 22.6244L55.0276 4.86599C55.2243 4.46189 55.3828 4.23254 55.5031 4.17793C55.5687 4.14517 55.6342 4.12879 55.6998 4.12879C55.9512 4.12879 56.1097 4.34176 56.1753 4.7677C56.2409 5.14995 56.2737 6.03459 56.2737 7.42162C56.2737 8.28442 56.2245 9.04346 56.1261 9.69875C56.0387 10.3431 55.8419 11.0476 55.5359 11.8121ZM60.5532 0.885101V21.2155C60.5532 21.7506 60.4439 22.1493 60.2253 22.4114C59.952 22.739 59.5585 23.0284 59.0447 23.2796C58.5419 23.5308 58.132 23.6564 57.815 23.6564C57.4433 23.6564 57.2575 23.4216 57.2575 22.952V2.62162C57.2575 2.16292 57.3668 1.79705 57.5854 1.52401C57.8696 1.18544 58.2632 0.87964 58.766 0.606603C59.2688 0.322644 59.6733 0.180664 59.9793 0.180664C60.3619 0.180664 60.5532 0.415476 60.5532 0.885101Z" fill="#0062C3"/>
<path d="M36.2347 11.2874C36.2347 12.7618 36.1582 14.0778 36.0051 15.2355C35.8521 16.3932 35.628 17.4253 35.3329 18.3317C35.0487 19.2273 34.6934 20.0082 34.2671 20.6744C33.8517 21.3297 33.3707 21.8921 32.8242 22.3618C32.1683 22.9406 31.6054 23.23 31.1353 23.23C30.9058 23.23 30.791 23.0935 30.791 22.8205C30.791 22.7331 30.873 22.5857 31.0369 22.3782C31.2009 22.1597 31.3594 21.9031 31.5125 21.6082C32.3869 19.959 32.8242 17.458 32.8242 14.1051C32.8242 13.5044 32.8242 12.8055 32.8242 12.0082C32.8242 11.2109 32.7695 10.3918 32.6602 9.55085C32.5618 8.69898 32.3869 7.86348 32.1355 7.04437C31.8841 6.22526 31.5015 5.49352 30.9878 4.84915C30.474 4.20478 29.8017 3.68601 28.971 3.29283C28.1511 2.88874 27.1236 2.68669 25.8884 2.68669C24.9265 2.68669 23.9864 2.86689 23.0682 3.2273C22.15 3.58771 21.2372 4.12287 20.33 4.83276L19.8053 5.24232C19.7069 5.32969 19.5976 5.40614 19.4773 5.47167C19.3571 5.5372 19.2696 5.56997 19.215 5.56997C18.9854 5.56997 18.8707 5.46075 18.8707 5.24232C18.8707 4.90375 19.1057 4.43413 19.5757 3.83345C20.5595 2.57747 21.7182 1.6273 23.0518 0.982935C24.3854 0.327645 25.79 0 27.2657 0C28.7524 0 30.0532 0.223891 31.1681 0.671672C32.294 1.11945 33.2286 1.80751 33.9719 2.73584C34.7262 3.65324 35.2891 4.82184 35.6608 6.24164C36.0434 7.66143 36.2347 9.34334 36.2347 11.2874ZM22.1992 6.14334C22.1992 6.24164 22.1445 6.58567 22.0352 7.17543C21.9259 7.75427 21.8166 8.52423 21.7073 9.48532C21.598 10.4464 21.5433 11.4348 21.5433 12.4505C21.5433 13.2369 21.5652 13.9522 21.6089 14.5966C21.6636 15.241 21.751 15.9181 21.8712 16.628C21.9915 17.3379 22.1773 17.9604 22.4287 18.4956C22.6801 19.0198 22.9917 19.5058 23.3633 19.9536C23.735 20.3904 24.2105 20.729 24.7898 20.9693C25.3692 21.1986 26.0305 21.3133 26.7738 21.3133C27.4297 21.3133 28.009 21.2478 28.5119 21.1167C29.0147 20.9747 29.4028 20.8382 29.676 20.7072C29.9493 20.5761 30.1351 20.5106 30.2335 20.5106C30.474 20.5106 30.5942 20.6416 30.5942 20.9038C30.5942 21.1768 30.4904 21.4826 30.2827 21.8212C30.075 22.1597 29.7853 22.4983 29.4137 22.8369C29.042 23.1645 28.5392 23.4375 27.9052 23.656C27.2712 23.8853 26.588 24 25.8556 24C24.3799 24 23.1338 23.7597 22.1172 23.2792C21.1006 22.7877 20.3026 22.0505 19.7233 21.0676C19.1549 20.0846 18.745 18.9488 18.4935 17.6601C18.2531 16.3713 18.1328 14.8369 18.1328 13.0567C18.1328 10.359 18.4061 8.49147 18.9526 7.45392C19.2587 6.88601 19.696 6.4273 20.2644 6.07782C20.8328 5.71741 21.3083 5.5372 21.6909 5.5372C22.0297 5.5372 22.1992 5.73925 22.1992 6.14334Z" fill="#0062C3"/>
<path d="M4.16474 6.2744C4.16474 6.43823 4.10462 6.79863 3.98438 7.35563C3.86414 7.91263 3.73843 8.64983 3.60726 9.56724C3.48701 10.4846 3.42689 11.4567 3.42689 12.4833C3.42689 13.2805 3.45969 14.0123 3.52527 14.6785C3.59086 15.3338 3.70017 16.0109 3.8532 16.7099C4.01717 17.398 4.24672 18.0041 4.54186 18.5283C4.84793 19.0526 5.21959 19.5276 5.65683 19.9536C6.09408 20.3686 6.64063 20.6908 7.29649 20.9201C7.95236 21.1386 8.70114 21.2478 9.54283 21.2478C10.3189 21.2478 11.0459 21.1604 11.7236 20.9857C12.4013 20.8109 12.9151 20.6198 13.2649 20.4123C13.6256 20.1939 13.9535 19.9973 14.2487 19.8225C14.5547 19.6478 14.7679 19.5604 14.8881 19.5604C15.1505 19.5604 15.2816 19.6969 15.2816 19.97C15.2816 20.1338 15.2106 20.3631 15.0685 20.658C14.9373 20.9529 14.6968 21.2969 14.347 21.6901C13.9972 22.0833 13.5709 22.4491 13.0681 22.7877C12.5762 23.1263 11.9094 23.4102 11.0677 23.6396C10.226 23.8799 9.30235 24 8.29669 24C6.70075 24 5.35623 23.7597 4.26312 23.2792C3.17001 22.7986 2.31192 22.0778 1.68885 21.1167C1.07671 20.1556 0.639468 19.0471 0.377122 17.7911C0.125707 16.5352 0 15.0334 0 13.286C0 12.0519 0.0765175 10.9379 0.229553 9.94403C0.382588 8.95017 0.568416 8.24027 0.787038 7.81433C1.06031 7.26826 1.48663 6.79317 2.06597 6.38908C2.65625 5.97406 3.19187 5.76655 3.67284 5.76655C4.00077 5.76655 4.16474 5.93584 4.16474 6.2744ZM14.9537 1.94949C14.9537 2.39727 14.5493 2.91058 13.7404 3.48942C13.4124 3.76246 13.0408 3.89898 12.6254 3.89898C12.527 3.89898 12.4341 3.89352 12.3467 3.88259C12.2592 3.86075 12.1608 3.83345 12.0515 3.80068C11.9422 3.757 11.8548 3.72423 11.7892 3.70239C11.7236 3.68055 11.6143 3.63686 11.4612 3.57133C11.3191 3.5058 11.2153 3.45666 11.1497 3.42389C9.991 2.93242 8.91976 2.68669 7.93596 2.68669C5.96837 2.68669 4.05543 3.5058 2.19715 5.14403C2.14249 5.18771 2.06051 5.25324 1.9512 5.34061C1.84189 5.42799 1.75444 5.49898 1.68885 5.55358C1.6342 5.59727 1.56314 5.65188 1.4757 5.71741C1.39918 5.77201 1.32813 5.8157 1.26254 5.84846C1.20788 5.87031 1.15869 5.88123 1.11497 5.88123C0.863555 5.88123 0.737848 5.74471 0.737848 5.47167C0.737848 5.12218 1.03299 4.57611 1.62326 3.83345C2.62892 2.5884 3.78762 1.63823 5.09935 0.982935C6.42201 0.327645 8.02888 0 9.91995 0C11.3738 0 12.7019 0.294881 13.9043 0.884642C14.112 0.982935 14.2596 1.05939 14.347 1.11399C14.4454 1.15768 14.5711 1.26143 14.7242 1.42526C14.8772 1.58908 14.9537 1.76382 14.9537 1.94949Z" fill="#0062C3"/>
</svg>
